Coordinates
version=1
nRows=26
nColumns=24
inDegrees=yes

Units are S.I. units (second, meters, Newtons, ...)
Angles are in degrees.

endheader
time	pelvis_tilt	pelvis_list	pelvis_rotation	pelvis_tx	pelvis_ty	pelvis_tz	hip_flexion_r	hip_adduction_r	hip_rotation_r	knee_angle_r	ankle_angle_r	subtalar_angle_r	mtp_angle_r	hip_flexion_l	hip_adduction_l	hip_rotation_l	knee_angle_l	ankle_angle_l	subtalar_angle_l	mtp_angle_l	lumbar_extension	lumbar_bending	lumbar_rotation
      6.02000000	     -7.00963013	      3.42749826	    -11.56107313	      1.82120756	      0.65856638	     -0.23983976	     12.48211332	     -1.79024216	      5.01598735	    -65.20472264	    -13.68782378	    -21.45595864	      0.00000000	     28.03953677	      5.49153437	      2.23873470	    -21.12454606	      1.13033433	    -23.89080768	      0.00000000	    -12.55070914	     -2.69861025	     15.81192295
      6.03000000	     -6.89796400	      2.99666199	    -11.07336015	      1.83102931	      0.66135692	     -0.24063173	     14.65899248	     -1.10993615	      4.77154611	    -67.03833711	    -11.13805691	    -21.62088210	      0.00000000	     26.61986599	      5.45755317	      2.53572452	    -20.57175399	      2.01362936	    -22.99737009	      0.00000000	    -12.75831736	     -2.05080770	     14.89252839
      6.04000000	     -6.79804086	      2.55093089	    -10.55605030	      1.84086610	      0.66395191	     -0.24139512	     16.78376697	     -0.44987103	      4.44816488	    -68.50894639	     -8.76079175	    -21.60976659	      0.00000000	     25.21068410	      5.38940028	      2.84046449	    -20.00848929	      2.91820029	    -22.14454814	      0.00000000	    -12.90048377	     -1.39678764	     13.98150714
      6.05000000	     -6.70519647	      2.11006302	    -10.00587244	      1.85069473	      0.66633258	     -0.24213780	     18.85377916	      0.15851260	      4.04582779	    -69.63297547	     -6.70484755	    -21.59326530	      0.00000000	     23.82287187	      5.30758868	      3.15760123	    -19.45532801	      3.84423005	    -21.28900537	      0.00000000	    -12.99055322	     -0.75711083	     13.08021574
      6.06000000	     -6.62220227	      1.67801226	     -9.42770359	      1.86049253	      0.66849837	     -0.24282223	     20.86503088	      0.71774114	      3.58424354	    -70.41474852	     -4.96892319	    -21.65004973	      0.00000000	     22.47009518	      5.19957931	      3.45246217	    -18.92352484	      4.78394429	    -20.35528288	      0.00000000	    -13.04778699	     -0.14384133	     12.21007267
      6.07000000	     -6.52815124	      1.28411238	     -8.79606004	      1.87028983	      0.67045573	     -0.24350386	     22.78655876	      1.17954534	      3.05885020	    -70.85436891	     -3.81173534	    -22.10714232	      0.00000000	     21.10405834	      5.13983500	      3.93000095	    -18.36414002	      5.52769998	    -19.74498388	      0.00000000	    -13.07574874	      0.42393357	     11.27431985
      6.08000000	     -6.45118689	      0.90109065	     -8.22243219	      1.88004332	      0.67217350	     -0.24402862	     24.66418866	      1.60984047	      2.54266183	    -71.00405797	     -2.45960490	    -22.30889659	      0.00000000	     19.88012432	      4.96624355	      3.91866135	    -18.01188596	      6.73547165	    -18.24689163	      0.00000000	    -13.07374950	      0.94902434	     10.57228686
      6.09000000	     -6.35052428	      0.57139676	     -7.60550082	      1.88980696	      0.67367523	     -0.24451808	     26.42535908	      1.94863060	      2.01665521	    -70.83078974	     -1.69709168	    -23.06763291	      0.00000000	     18.64547482	      4.85782745	      4.09851273	    -17.66989395	      7.78254727	    -17.11951267	      0.00000000	    -13.06540311	      1.40606870	      9.78941678
      6.10000000	     -6.23350333	      0.34167183	     -6.94207634	      1.89959340	      0.67494487	     -0.24504418	     28.09921568	      2.12289000	      1.48850132	    -70.39447343	     -1.04756504	    -23.82830633	      0.00000000	     17.38590170	      4.88014064	      4.56569165	    -17.28556629	      8.53316343	    -16.53788438	      0.00000000	    -13.04337100	      1.76523334	      8.95165227
      6.11000000	     -6.11169203	      0.02107554	     -6.27296533	      1.90940621	      0.67601956	     -0.24543228	     29.63630508	      2.38325237	      0.94302455	    -69.62554019	     -0.65428753	    -24.90607231	      0.00000000	     16.24219672	      4.72108006	      4.67101236	    -17.15796198	      9.74606881	    -15.11569830	      0.00000000	    -13.00820121	      2.19749375	      8.29983004
      6.12000000	     -5.97325780	     -0.14174132	     -5.51054527	      1.91927299	      0.67683606	     -0.24594726	     31.09924925	      2.39242158	      0.40025279	    -68.66392256	     -0.19132555	    -25.67181515	      0.00000000	     15.03505221	      4.79248276	      5.27186610	    -16.91504187	     10.54318342	    -14.58222625	      0.00000000	    -12.93809536	      2.48336406	      7.48975653
      6.13000000	     -5.79174340	     -0.41205765	     -4.69057856	      1.92919388	      0.67751588	     -0.24640790	     32.36313848	      2.46681874	     -0.19050258	    -67.36614142	     -0.00732462	    -26.70715273	      0.00000000	     13.86410511	      4.69856339	      5.67862711	    -16.85300790	     11.60890056	    -13.50272290	      0.00000000	    -12.89358799	      2.87194290	      6.83635292
      6.14000000	     -5.62068393	     -0.48166608	     -3.76464592	      1.93914334	      0.67789306	     -0.24699965	     33.58949728	      2.23906220	     -0.75665805	    -65.93347876	      0.38582901	    -27.26160669	      0.00000000	     12.67297409	      4.85328237	      6.46342487	    -16.70121960	     12.42719325	    -13.09123560	      0.00000000	    -12.78016228	      3.04697449	      6.07030401
      6.15000000	     -5.40932255	     -0.61709763	     -2.73655811	      1.94912509	      0.67814504	     -0.24760504	     34.62639349	      1.99676018	     -1.38750744	    -64.21602881	      0.65829710	    -27.69884007	      0.00000000	     11.45814329	      4.90942034	      7.28759294	    -16.59638156	     13.26943723	    -12.54565488	      0.00000000	    -12.68706595	      3.28431295	      5.28758182
      6.16000000	     -5.08199276	     -0.83395896	     -1.63081285	      1.95915528	      0.67835768	     -0.24821811	     35.38045811	      1.76950293	     -2.05871778	    -62.20379203	      0.77860373	    -28.02373136	      0.00000000	     10.16057047	      4.82190906	      7.96058787	    -16.57338574	     14.29438176	    -11.51776065	      0.00000000	    -12.70616094	      3.61939013	      4.52923585
      6.17000000	     -4.80083163	     -0.88387144	     -0.41832220	      1.96915154	      0.67827940	     -0.24890500	     36.10405698	      1.28034926	     -2.71324518	    -60.04735527	      0.92305126	    -28.03606021	      0.00000000	      8.91498303	      4.89195930	      8.79892997	    -16.53457291	     15.23563780	    -10.79697923	      0.00000000	    -12.64174248	      3.75689087	      3.65362511
      6.18000000	     -4.45612078	     -0.91959152	      0.88675397	      1.97915242	      0.67809362	     -0.24961273	     36.62236331	      0.69309681	     -3.42019364	    -57.65884961	      1.03166106	    -27.82981219	      0.00000000	      7.60744087	      4.92848567	      9.67975085	    -16.50626357	     16.15975264	    -10.04162759	      0.00000000	    -12.64144870	      3.87326164	      2.80219249
      6.19000000	     -4.03232609	     -0.91049350	      2.25841572	      1.98915033	      0.67779770	     -0.25030861	     36.92697949	     -0.00402730	     -4.15491191	    -55.06852827	      1.09881044	    -27.32762569	      0.00000000	      6.24221733	      4.94162985	     10.49745583	    -16.52964056	     17.21954756	     -9.08721354	      0.00000000	    -12.74057681	      3.92485971	      1.99045613
      6.20000000	     -3.71332971	     -0.81296025	      3.75058143	      1.99912022	      0.67722319	     -0.25106455	     37.20519211	     -0.87821031	     -4.91653606	    -52.27812648	      0.94163368	    -26.87865904	      0.00000000	      4.97322321	      5.01696481	     11.52935666	    -16.52462442	     18.03303326	     -8.49624060	      0.00000000	    -12.71263222	      3.88787172	      1.02757683
      6.21000000	     -3.19694402	     -0.78805795	      5.23862709	      2.00916992	      0.67670395	     -0.25175472	     37.08959085	     -1.66244186	     -5.66222916	    -49.21449853	      0.82407045	    -26.07892406	      0.00000000	      3.48603874	      4.91453668	     12.49350186	    -16.50662067	     18.93173685	     -7.69006451	      0.00000000	    -12.91812616	      3.97063481	      0.11799802
      6.22000000	     -2.71797445	     -0.65194418	      6.77449669	      2.01919753	      0.67593823	     -0.25243436	     36.89193439	     -2.60903026	     -6.42766337	    -46.01390080	      0.60001873	    -25.13796140	      0.00000000	      2.05939753	      4.86482248	     13.44549507	    -16.53772104	     19.84659389	     -6.94175163	      0.00000000	    -13.11096862	      3.91764178	     -0.74353788
      6.23000000	     -2.35165373	     -0.41357051	      8.33686004	      2.02923071	      0.67488481	     -0.25309079	     36.66489021	     -3.64902866	     -7.04416996	    -42.64787530	      0.23594224	    -24.29928076	      0.00000000	      0.73051598	      4.87864184	     14.52106420	    -16.56669276	     20.69555154	     -6.35142802	      0.00000000	    -13.18691980	      3.76601866	     -1.75489895
      6.24000000	     -1.85215046	     -0.20623794	      9.85117573	      2.03934373	      0.67380870	     -0.25366185	     36.13592794	     -4.63137831	     -7.69414481	    -39.08347616	     -0.13447422	    -23.22060880	      0.00000000	     -0.74587121	      4.75574304	     15.49158158	    -16.58775526	     21.54950811	     -5.72866542	      0.00000000	    -13.44516809	      3.67372169	     -2.57724041
      6.25000000	     -1.46779258	      0.09839676	     11.35593901	      2.04950534	      0.67245739	     -0.25419390	     35.58805284	     -5.69315747	     -8.20039424	    -35.40322512	     -0.57411848	    -22.25299765	      0.00000000	     -2.12737983	      4.69100150	     16.48879400	    -16.61241776	     22.37319733	     -5.20042969	      0.00000000	    -13.58511462	      3.47994807	     -3.48308820
      6.26000000	     -1.11264878	      0.45427451	     12.82009308	      2.05977299	      0.67094006	     -0.25465619	     34.92684720	     -6.77353680	     -8.61673415	    -31.61163704	     -1.02296054	    -21.32825716	      0.00000000	     -3.52037016	      4.61652482	     17.44926637	    -16.60504907	     23.15906790	     -4.74659758	      0.00000000	    -13.70619396	      3.23816052	     -4.38120456
      6.27000000	     -0.78140425	      0.86781617	     14.23198582	      2.07018641	      0.66927985	     -0.25503810	     34.15756773	     -7.87585881	     -8.96418087	    -27.75710244	     -1.40028772	    -20.40028033	      0.00000000	     -4.95401300	      4.53635421	     18.34771077	    -16.52837471	     23.89096660	     -4.38221989	      0.00000000	    -13.81050282	      2.93498363	     -5.27106165
